<svg width="560" height="420" viewBox="0 0 560 420" fill="none" xmlns="http://www.w3.org/2000/svg">
  <rect width="560" height="420" rx="28" fill="#F7F8FA"/>
  <rect x="28" y="34" width="504" height="352" rx="24" fill="#FFFFFF" stroke="#E2E4E9"/>
  <rect x="56" y="66" width="168" height="288" rx="20" fill="#1F2937"/>
  <rect x="82" y="98" width="116" height="18" rx="9" fill="#FF7733"/>
  <rect x="82" y="130" width="76" height="10" rx="5" fill="#D1D5DB"/>
  <rect x="82" y="156" width="116" height="60" rx="12" fill="#374151"/>
  <rect x="82" y="236" width="116" height="60" rx="12" fill="#374151"/>
  <rect x="252" y="74" width="244" height="124" rx="22" fill="#FFF3EE" stroke="#FFD2BF"/>
  <rect x="276" y="98" width="112" height="16" rx="8" fill="#FF7733"/>
  <rect x="276" y="128" width="188" height="12" rx="6" fill="#C9CED6"/>
  <rect x="276" y="150" width="164" height="12" rx="6" fill="#D8DCE3"/>
  <circle cx="446" cy="136" r="28" fill="#1F2937"/>
  <path d="M433 136L442 145L459 128" stroke="#FF7733" stroke-width="8" stroke-linecap="round" stroke-linejoin="round"/>
  <rect x="252" y="222" width="112" height="120" rx="20" fill="#F9FAFB" stroke="#E2E4E9"/>
  <rect x="276" y="250" width="64" height="14" rx="7" fill="#1F2937"/>
  <rect x="276" y="280" width="44" height="10" rx="5" fill="#B7BDC7"/>
  <rect x="276" y="302" width="64" height="10" rx="5" fill="#D5DAE1"/>
  <rect x="384" y="222" width="112" height="120" rx="20" fill="#F9FAFB" stroke="#E2E4E9"/>
  <rect x="408" y="250" width="64" height="14" rx="7" fill="#1F2937"/>
  <rect x="408" y="280" width="44" height="10" rx="5" fill="#B7BDC7"/>
  <rect x="408" y="302" width="64" height="10" rx="5" fill="#D5DAE1"/>
  <path d="M224 204H252" stroke="#FF7733" stroke-width="10" stroke-linecap="round"/>
  <path d="M364 282H384" stroke="#FF7733" stroke-width="10" stroke-linecap="round"/>
  <path d="M496 282C514 282 526 268 526 250C526 232 514 218 496 218" stroke="#1F2937" stroke-width="10" stroke-linecap="round"/>
  <circle cx="496" cy="218" r="14" fill="#FF7733"/>
</svg>
